<svg xmlns="http://www.w3.org/2000/svg" xmlns:xlink="http://www.w3.org/1999/xlink" width="500" zoomAndPan="magnify" viewBox="0 0 375 374.999991" height="500" preserveAspectRatio="xMidYMid meet" version="1.2"><defs><clipPath id="668d7bc85f"><path d="M 45 23 L 288 23 L 288 308 L 45 308 Z M 45 23 "/></clipPath><clipPath id="7c0c9b6142"><path d="M -36.5625 94.816406 L 135.566406 -40.777344 L 356.277344 239.414062 L 184.148438 375.003906 Z M -36.5625 94.816406 "/></clipPath><clipPath id="7a5d29a287"><path d="M -36.5625 94.816406 L 135.566406 -40.777344 L 356.277344 239.414062 L 184.148438 375.003906 Z M -36.5625 94.816406 "/></clipPath><clipPath id="7baf1dd8fe"><path d="M 44 127 L 234 127 L 234 359 L 44 359 Z M 44 127 "/></clipPath><clipPath id="588fdfc19f"><path d="M -36.5625 94.816406 L 135.566406 -40.777344 L 356.277344 239.414062 L 184.148438 375.003906 Z M -36.5625 94.816406 "/></clipPath><clipPath id="cd269ef9ce"><path d="M -36.5625 94.816406 L 135.566406 -40.777344 L 356.277344 239.414062 L 184.148438 375.003906 Z M -36.5625 94.816406 "/></clipPath><clipPath id="07f4896ba9"><path d="M 150 44 L 339 44 L 339 276 L 150 276 Z M 150 44 "/></clipPath><clipPath id="dfeada3550"><path d="M -36.5625 94.816406 L 135.566406 -40.777344 L 356.277344 239.414062 L 184.148438 375.003906 Z M -36.5625 94.816406 "/></clipPath><clipPath id="f2aa9f1cd4"><path d="M -36.5625 94.816406 L 135.566406 -40.777344 L 356.277344 239.414062 L 184.148438 375.003906 Z M -36.5625 94.816406 "/></clipPath><clipPath id="752bb645f1"><path d="M 12 0 L 289 0 L 289 309 L 12 309 Z M 12 0 "/></clipPath><clipPath id="bbe4800a7a"><path d="M -36.5625 94.816406 L 135.566406 -40.777344 L 356.277344 239.414062 L 184.148438 375.003906 Z M -36.5625 94.816406 "/></clipPath><clipPath id="e0b72a4f29"><path d="M -36.5625 94.816406 L 135.566406 -40.777344 L 356.277344 239.414062 L 184.148438 375.003906 Z M -36.5625 94.816406 "/></clipPath><filter x="0%" y="0%" width="100%" filterUnits="objectBoundingBox" id="7261f1a29f" height="100%"><feColorMatrix values="0 0 0 0 1 0 0 0 0 1 0 0 0 0 1 0 0 0 1 0" type="matrix" in="SourceGraphic"/></filter><clipPath id="47ba29f857"><path d="M 33 23 L 276 23 L 276 308 L 33 308 Z M 33 23 "/></clipPath><clipPath id="7bf4d5dcd5"><path d="M -48.5625 94.816406 L 123.566406 -40.777344 L 344.277344 239.414062 L 172.148438 375.003906 Z M -48.5625 94.816406 "/></clipPath><clipPath id="2ba786972b"><path d="M -48.5625 94.816406 L 123.566406 -40.777344 L 344.277344 239.414062 L 172.148438 375.003906 Z M -48.5625 94.816406 "/></clipPath><clipPath id="1d44638cfb"><rect x="0" width="277" y="0" height="309"/></clipPath><clipPath id="72fd8f2b21"><path d="M 30 116 L 234 116 L 234 359 L 30 359 Z M 30 116 "/></clipPath><clipPath id="3ecf645735"><path d="M -36.5625 94.816406 L 135.566406 -40.777344 L 356.277344 239.414062 L 184.148438 375.003906 Z M -36.5625 94.816406 "/></clipPath><clipPath id="b6ea325bfe"><path d="M -36.5625 94.816406 L 135.566406 -40.777344 L 356.277344 239.414062 L 184.148438 375.003906 Z M -36.5625 94.816406 "/></clipPath><clipPath id="0deeb46c10"><path d="M 14 11 L 203.28125 11 L 203.28125 242.800781 L 14 242.800781 Z M 14 11 "/></clipPath><clipPath id="2c6d252d7e"><path d="M -66.5625 -21.183594 L 105.566406 -156.777344 L 326.277344 123.414062 L 154.148438 259.003906 Z M -66.5625 -21.183594 "/></clipPath><clipPath id="c2ad6a25e4"><path d="M -66.5625 -21.183594 L 105.566406 -156.777344 L 326.277344 123.414062 L 154.148438 259.003906 Z M -66.5625 -21.183594 "/></clipPath><clipPath id="1af5cc4df2"><rect x="0" width="204" y="0" height="243"/></clipPath><clipPath id="8cfcf8ec0b"><path d="M 109 216 L 145 216 L 145 246 L 109 246 Z M 109 216 "/></clipPath><clipPath id="76993c31e3"><path d="M -36.5625 94.816406 L 135.566406 -40.777344 L 356.277344 239.414062 L 184.148438 375.003906 Z M -36.5625 94.816406 "/></clipPath><clipPath id="b76b3789a4"><path d="M -36.5625 94.816406 L 135.566406 -40.777344 L 356.277344 239.414062 L 184.148438 375.003906 Z M -36.5625 94.816406 "/></clipPath><clipPath id="064ab538d3"><path d="M 2 1 L 35 1 L 35 29 L 2 29 Z M 2 1 "/></clipPath><clipPath id="67da669315"><path d="M -145.5625 -121.183594 L 26.566406 -256.777344 L 247.277344 23.414062 L 75.148438 159.003906 Z M -145.5625 -121.183594 "/></clipPath><clipPath id="b136bf2113"><path d="M -145.5625 -121.183594 L 26.566406 -256.777344 L 247.277344 23.414062 L 75.148438 159.003906 Z M -145.5625 -121.183594 "/></clipPath><clipPath id="ff66f8a61a"><rect x="0" width="36" y="0" height="30"/></clipPath><clipPath id="64c079dc7a"><path d="M 136 32 L 340 32 L 340 276 L 136 276 Z M 136 32 "/></clipPath><clipPath id="bb68197b1a"><path d="M -36.5625 94.816406 L 135.566406 -40.777344 L 356.277344 239.414062 L 184.148438 375.003906 Z M -36.5625 94.816406 "/></clipPath><clipPath id="dc679d8e06"><path d="M -36.5625 94.816406 L 135.566406 -40.777344 L 356.277344 239.414062 L 184.148438 375.003906 Z M -36.5625 94.816406 "/></clipPath><clipPath id="14576aa230"><path d="M 14 12 L 203 12 L 203 244 L 14 244 Z M 14 12 "/></clipPath><clipPath id="ddb4a023b7"><path d="M -172.5625 62.816406 L -0.433594 -72.777344 L 220.277344 207.414062 L 48.148438 343.003906 Z M -172.5625 62.816406 "/></clipPath><clipPath id="d9ac2409b3"><path d="M -172.5625 62.816406 L -0.433594 -72.777344 L 220.277344 207.414062 L 48.148438 343.003906 Z M -172.5625 62.816406 "/></clipPath><clipPath id="cb4925806f"><rect x="0" width="204" y="0" height="244"/></clipPath><clipPath id="e811ef8b8d"><path d="M 215 133 L 250 133 L 250 163 L 215 163 Z M 215 133 "/></clipPath><clipPath id="b5c8107805"><path d="M -36.5625 94.816406 L 135.566406 -40.777344 L 356.277344 239.414062 L 184.148438 375.003906 Z M -36.5625 94.816406 "/></clipPath><clipPath id="2eceed36aa"><path d="M -36.5625 94.816406 L 135.566406 -40.777344 L 356.277344 239.414062 L 184.148438 375.003906 Z M -36.5625 94.816406 "/></clipPath><clipPath id="7c077eeb8f"><path d="M 1 1 L 34 1 L 34 29 L 1 29 Z M 1 1 "/></clipPath><clipPath id="2550332a7a"><path d="M -251.5625 -38.183594 L -79.433594 -173.777344 L 141.277344 106.414062 L -30.851562 242.003906 Z M -251.5625 -38.183594 "/></clipPath><clipPath id="328bb729ea"><path d="M -251.5625 -38.183594 L -79.433594 -173.777344 L 141.277344 106.414062 L -30.851562 242.003906 Z M -251.5625 -38.183594 "/></clipPath><clipPath id="da7cc02ea8"><rect x="0" width="35" y="0" height="30"/></clipPath><clipPath id="93ba5e2a16"><path d="M 28 7 L 92 7 L 92 66 L 28 66 Z M 28 7 "/></clipPath><clipPath id="b6bf412125"><path d="M -36.5625 94.816406 L 135.566406 -40.777344 L 356.277344 239.414062 L 184.148438 375.003906 Z M -36.5625 94.816406 "/></clipPath><clipPath id="d6f61f6149"><path d="M -36.5625 94.816406 L 135.566406 -40.777344 L 356.277344 239.414062 L 184.148438 375.003906 Z M -36.5625 94.816406 "/></clipPath><clipPath id="56c341f836"><path d="M 17 16 L 63 16 L 63 58.761719 L 17 58.761719 Z M 17 16 "/></clipPath><clipPath id="b20804a105"><path d="M -64.5625 87.816406 L 107.566406 -47.777344 L 328.277344 232.414062 L 156.148438 368.003906 Z M -64.5625 87.816406 "/></clipPath><clipPath id="9f12777f92"><path d="M -64.5625 87.816406 L 107.566406 -47.777344 L 328.277344 232.414062 L 156.148438 368.003906 Z M -64.5625 87.816406 "/></clipPath><clipPath id="7e82511f91"><rect x="0" width="64" y="0" height="59"/></clipPath><clipPath id="d94612e58e"><path d="M 87 77 L 339 77 L 339 354 L 87 354 Z M 87 77 "/></clipPath><clipPath id="4b9729896e"><path d="M -36.5625 94.816406 L 135.566406 -40.777344 L 356.277344 239.414062 L 184.148438 375.003906 Z M -36.5625 94.816406 "/></clipPath><clipPath id="a5250c47ea"><path d="M -36.5625 94.816406 L 135.566406 -40.777344 L 356.277344 239.414062 L 184.148438 375.003906 Z M -36.5625 94.816406 "/></clipPath><clipPath id="770dd5e5a8"><path d="M 199 329 L 234 329 L 234 359 L 199 359 Z M 199 329 "/></clipPath><clipPath id="7a3edbac04"><path d="M -36.5625 94.816406 L 135.566406 -40.777344 L 356.277344 239.414062 L 184.148438 375.003906 Z M -36.5625 94.816406 "/></clipPath><clipPath id="914d0d30c4"><path d="M -36.5625 94.816406 L 135.566406 -40.777344 L 356.277344 239.414062 L 184.148438 375.003906 Z M -36.5625 94.816406 "/></clipPath><clipPath id="e5fd8bdc9b"><path d="M 1 1 L 35 1 L 35 29.800781 L 1 29.800781 Z M 1 1 "/></clipPath><clipPath id="5ac82d4291"><path d="M -235.5625 -234.183594 L -63.433594 -369.777344 L 157.277344 -89.585938 L -14.851562 46.003906 Z M -235.5625 -234.183594 "/></clipPath><clipPath id="0319708ec4"><path d="M -235.5625 -234.183594 L -63.433594 -369.777344 L 157.277344 -89.585938 L -14.851562 46.003906 Z M -235.5625 -234.183594 "/></clipPath><clipPath id="2c99591dd3"><rect x="0" width="35" y="0" height="30"/></clipPath><clipPath id="2b653ad7a3"><path d="M 304 246 L 340 246 L 340 276 L 304 276 Z M 304 246 "/></clipPath><clipPath id="1faa966e69"><path d="M -36.5625 94.816406 L 135.566406 -40.777344 L 356.277344 239.414062 L 184.148438 375.003906 Z M -36.5625 94.816406 "/></clipPath><clipPath id="8b3177c09c"><path d="M -36.5625 94.816406 L 135.566406 -40.777344 L 356.277344 239.414062 L 184.148438 375.003906 Z M -36.5625 94.816406 "/></clipPath><clipPath id="90c73e667f"><path d="M 1 1 L 35 1 L 35 30 L 1 30 Z M 1 1 "/></clipPath><clipPath id="c8379d425e"><path d="M -340.5625 -151.183594 L -168.433594 -286.777344 L 52.277344 -6.585938 L -119.851562 129.003906 Z M -340.5625 -151.183594 "/></clipPath><clipPath id="9513007a0f"><path d="M -340.5625 -151.183594 L -168.433594 -286.777344 L 52.277344 -6.585938 L -119.851562 129.003906 Z M -340.5625 -151.183594 "/></clipPath><clipPath id="60c1d95f17"><rect x="0" width="36" y="0" height="30"/></clipPath><clipPath id="d4348a0265"><path d="M 157 291 L 225 291 L 225 346 L 157 346 Z M 157 291 "/></clipPath><clipPath id="3682a97e41"><path d="M -36.5625 94.816406 L 135.566406 -40.777344 L 356.277344 239.414062 L 184.148438 375.003906 Z M -36.5625 94.816406 "/></clipPath><clipPath id="7aeebfc562"><path d="M -36.5625 94.816406 L 135.566406 -40.777344 L 356.277344 239.414062 L 184.148438 375.003906 Z M -36.5625 94.816406 "/></clipPath><clipPath id="e21a9a23f7"><path d="M 2 1 L 67 1 L 67 54 L 2 54 Z M 2 1 "/></clipPath><clipPath id="ac344cd653"><path d="M -193.5625 -196.183594 L -21.433594 -331.777344 L 199.277344 -51.585938 L 27.148438 84.003906 Z M -193.5625 -196.183594 "/></clipPath><clipPath id="4a730daffe"><path d="M -193.5625 -196.183594 L -21.433594 -331.777344 L 199.277344 -51.585938 L 27.148438 84.003906 Z M -193.5625 -196.183594 "/></clipPath><clipPath id="d5516a29bd"><rect x="0" width="68" y="0" height="55"/></clipPath><clipPath id="bfe5657b1e"><path d="M 268 206 L 333 206 L 333 258 L 268 258 Z M 268 206 "/></clipPath><clipPath id="dd5efc402f"><path d="M -36.5625 94.816406 L 135.566406 -40.777344 L 356.277344 239.414062 L 184.148438 375.003906 Z M -36.5625 94.816406 "/></clipPath><clipPath id="f003b0eada"><path d="M -36.5625 94.816406 L 135.566406 -40.777344 L 356.277344 239.414062 L 184.148438 375.003906 Z M -36.5625 94.816406 "/></clipPath><clipPath id="1f36bb0b5d"><path d="M 1 1 L 64.398438 1 L 64.398438 52 L 1 52 Z M 1 1 "/></clipPath><clipPath id="1985dade64"><path d="M -304.5625 -111.183594 L -132.433594 -246.777344 L 88.277344 33.414062 L -83.851562 169.003906 Z M -304.5625 -111.183594 "/></clipPath><clipPath id="7712d6ccd6"><path d="M -304.5625 -111.183594 L -132.433594 -246.777344 L 88.277344 33.414062 L -83.851562 169.003906 Z M -304.5625 -111.183594 "/></clipPath><clipPath id="db3b03cfb9"><rect x="0" width="65" y="0" height="52"/></clipPath><clipPath id="d1689d3b88"><path d="M 235 292 L 264 292 L 264 317 L 235 317 Z M 235 292 "/></clipPath><clipPath id="d2c3d98fa8"><path d="M -36.5625 94.816406 L 135.566406 -40.777344 L 356.277344 239.414062 L 184.148438 375.003906 Z M -36.5625 94.816406 "/></clipPath><clipPath id="f6bef1ebfd"><path d="M -36.5625 94.816406 L 135.566406 -40.777344 L 356.277344 239.414062 L 184.148438 375.003906 Z M -36.5625 94.816406 "/></clipPath><clipPath id="ec4f1adfde"><path d="M 1 1 L 28 1 L 28 24 L 1 24 Z M 1 1 "/></clipPath><clipPath id="ae32ee9a5f"><path d="M -271.5625 -197.183594 L -99.433594 -332.777344 L 121.277344 -52.585938 L -50.851562 83.003906 Z M -271.5625 -197.183594 "/></clipPath><clipPath id="efa61d37a0"><path d="M -271.5625 -197.183594 L -99.433594 -332.777344 L 121.277344 -52.585938 L -50.851562 83.003906 Z M -271.5625 -197.183594 "/></clipPath><clipPath id="2370f6e194"><rect x="0" width="29" y="0" height="25"/></clipPath><clipPath id="b5667935c9"><path d="M 259 273 L 288 273 L 288 298 L 259 298 Z M 259 273 "/></clipPath><clipPath id="4b4eb0c6c5"><path d="M -36.5625 94.816406 L 135.566406 -40.777344 L 356.277344 239.414062 L 184.148438 375.003906 Z M -36.5625 94.816406 "/></clipPath><clipPath id="cb89097a98"><path d="M -36.5625 94.816406 L 135.566406 -40.777344 L 356.277344 239.414062 L 184.148438 375.003906 Z M -36.5625 94.816406 "/></clipPath><clipPath id="77c9ebdd9b"><path d="M 2 0.601562 L 29 0.601562 L 29 24 L 2 24 Z M 2 0.601562 "/></clipPath><clipPath id="c5cdbd386d"><path d="M -295.5625 -178.183594 L -123.433594 -313.777344 L 97.277344 -33.585938 L -74.851562 102.003906 Z M -295.5625 -178.183594 "/></clipPath><clipPath id="04fd627d99"><path d="M -295.5625 -178.183594 L -123.433594 -313.777344 L 97.277344 -33.585938 L -74.851562 102.003906 Z M -295.5625 -178.183594 "/></clipPath><clipPath id="6eeac2020b"><rect x="0" width="29" y="0" height="25"/></clipPath><clipPath id="35dc5fba45"><path d="M 98 107 L 111 107 L 111 120 L 98 120 Z M 98 107 "/></clipPath><clipPath id="a427af65ec"><path d="M -36.5625 94.816406 L 135.566406 -40.777344 L 356.277344 239.414062 L 184.148438 375.003906 Z M -36.5625 94.816406 "/></clipPath><clipPath id="abde19a6c9"><path d="M -36.5625 94.816406 L 135.566406 -40.777344 L 356.277344 239.414062 L 184.148438 375.003906 Z M -36.5625 94.816406 "/></clipPath><clipPath id="68a2ac6bcd"><path d="M 3 1 L 11 1 L 11 10 L 3 10 Z M 3 1 "/></clipPath><clipPath id="c92cd4f342"><path d="M -134.5625 -12.183594 L 37.566406 -147.777344 L 258.277344 132.414062 L 86.148438 268.003906 Z M -134.5625 -12.183594 "/></clipPath><clipPath id="d8a33a7a62"><path d="M -134.5625 -12.183594 L 37.566406 -147.777344 L 258.277344 132.414062 L 86.148438 268.003906 Z M -134.5625 -12.183594 "/></clipPath><clipPath id="0c978f53cf"><rect x="0" width="13" y="0" height="13"/></clipPath><clipPath id="ba03239ace"><path d="M 104 99 L 118 99 L 118 113 L 104 113 Z M 104 99 "/></clipPath><clipPath id="cbcfbce0a1"><path d="M -36.5625 94.816406 L 135.566406 -40.777344 L 356.277344 239.414062 L 184.148438 375.003906 Z M -36.5625 94.816406 "/></clipPath><clipPath id="6d42697920"><path d="M -36.5625 94.816406 L 135.566406 -40.777344 L 356.277344 239.414062 L 184.148438 375.003906 Z M -36.5625 94.816406 "/></clipPath><clipPath id="6c7b9a2076"><path d="M 2 1 L 12 1 L 12 11 L 2 11 Z M 2 1 "/></clipPath><clipPath id="1e5642ceb7"><path d="M -140.5625 -4.183594 L 31.566406 -139.777344 L 252.277344 140.414062 L 80.148438 276.003906 Z M -140.5625 -4.183594 "/></clipPath><clipPath id="7767e9a86a"><path d="M -140.5625 -4.183594 L 31.566406 -139.777344 L 252.277344 140.414062 L 80.148438 276.003906 Z M -140.5625 -4.183594 "/></clipPath><clipPath id="b556e97dbd"><rect x="0" width="14" y="0" height="14"/></clipPath><clipPath id="00cf500f88"><path d="M 66 58 L 286 58 L 286 313 L 66 313 Z M 66 58 "/></clipPath><clipPath id="cdcbfc91f6"><path d="M -36.5625 94.816406 L 135.566406 -40.777344 L 356.277344 239.414062 L 184.148438 375.003906 Z M -36.5625 94.816406 "/></clipPath><clipPath id="659e595fc0"><path d="M -36.5625 94.816406 L 135.566406 -40.777344 L 356.277344 239.414062 L 184.148438 375.003906 Z M -36.5625 94.816406 "/></clipPath><clipPath id="47553c8da8"><path d="M 21 19 L 219 19 L 219 254.960938 L 21 254.960938 Z M 21 19 "/></clipPath><clipPath id="2d72a21d2f"><path d="M -102.5625 36.816406 L 69.566406 -98.777344 L 290.277344 181.414062 L 118.148438 317.003906 Z M -102.5625 36.816406 "/></clipPath><clipPath id="38c4d680e3"><path d="M -102.5625 36.816406 L 69.566406 -98.777344 L 290.277344 181.414062 L 118.148438 317.003906 Z M -102.5625 36.816406 "/></clipPath><clipPath id="a532f4c45d"><rect x="0" width="220" y="0" height="255"/></clipPath><clipPath id="87e4b7cf27"><path d="M 113 94 L 127 94 L 127 108 L 113 108 Z M 113 94 "/></clipPath><clipPath id="1fc7d269ef"><path d="M -36.5625 94.816406 L 135.566406 -40.777344 L 356.277344 239.414062 L 184.148438 375.003906 Z M -36.5625 94.816406 "/></clipPath><clipPath id="83330dd90f"><path d="M -36.5625 94.816406 L 135.566406 -40.777344 L 356.277344 239.414062 L 184.148438 375.003906 Z M -36.5625 94.816406 "/></clipPath><clipPath id="ed2d123be6"><path d="M 3 3 L 11 3 L 11 11 L 3 11 Z M 3 3 "/></clipPath><clipPath id="1adcceb5d5"><path d="M -149.5625 0.816406 L 22.566406 -134.777344 L 243.277344 145.414062 L 71.148438 281.003906 Z M -149.5625 0.816406 "/></clipPath><clipPath id="439cfec339"><path d="M -149.5625 0.816406 L 22.566406 -134.777344 L 243.277344 145.414062 L 71.148438 281.003906 Z M -149.5625 0.816406 "/></clipPath><clipPath id="f239ef4058"><rect x="0" width="14" y="0" height="14"/></clipPath><clipPath id="73e8e95391"><path d="M 209 238 L 262 238 L 262 282 L 209 282 Z M 209 238 "/></clipPath><clipPath id="075559b865"><path d="M -36.5625 94.816406 L 135.566406 -40.777344 L 356.277344 239.414062 L 184.148438 375.003906 Z M -36.5625 94.816406 "/></clipPath><clipPath id="395ef780b5"><path d="M -36.5625 94.816406 L 135.566406 -40.777344 L 356.277344 239.414062 L 184.148438 375.003906 Z M -36.5625 94.816406 "/></clipPath><clipPath id="9fb294b7c3"><path d="M 1 1 L 52.839844 1 L 52.839844 43.519531 L 1 43.519531 Z M 1 1 "/></clipPath><clipPath id="0468938c56"><path d="M -245.5625 -143.183594 L -73.433594 -278.777344 L 147.277344 1.414062 L -24.851562 137.003906 Z M -245.5625 -143.183594 "/></clipPath><clipPath id="8be1e8d4c0"><path d="M -245.5625 -143.183594 L -73.433594 -278.777344 L 147.277344 1.414062 L -24.851562 137.003906 Z M -245.5625 -143.183594 "/></clipPath><clipPath id="43858716ee"><rect x="0" width="53" y="0" height="44"/></clipPath><clipPath id="edabbf7c10"><path d="M 134 145 L 186 145 L 186 188 L 134 188 Z M 134 145 "/></clipPath><clipPath id="70d4431bd0"><path d="M -36.5625 94.816406 L 135.566406 -40.777344 L 356.277344 239.414062 L 184.148438 375.003906 Z M -36.5625 94.816406 "/></clipPath><clipPath id="da06775e6d"><path d="M -36.5625 94.816406 L 135.566406 -40.777344 L 356.277344 239.414062 L 184.148438 375.003906 Z M -36.5625 94.816406 "/></clipPath><clipPath id="fa645f09fe"><path d="M 0.398438 0.199219 L 52 0.199219 L 52 42 L 0.398438 42 Z M 0.398438 0.199219 "/></clipPath><clipPath id="c18f1d2ff5"><path d="M -170.5625 -50.183594 L 1.566406 -185.777344 L 222.277344 94.414062 L 50.148438 230.003906 Z M -170.5625 -50.183594 "/></clipPath><clipPath id="a6b54e378a"><path d="M -170.5625 -50.183594 L 1.566406 -185.777344 L 222.277344 94.414062 L 50.148438 230.003906 Z M -170.5625 -50.183594 "/></clipPath><clipPath id="32a401d3d5"><rect x="0" width="52" y="0" height="43"/></clipPath><clipPath id="4c58d74a19"><path d="M 134 145 L 235 145 L 235 248 L 134 248 Z M 134 145 "/></clipPath><clipPath id="0b47ab32c5"><path d="M 182.558594 145.058594 L 234.257812 210.082031 L 186.625 247.949219 L 134.925781 182.925781 Z M 182.558594 145.058594 "/></clipPath></defs><g id="bbdf0a4268"><g clip-rule="nonzero" clip-path="url(#668d7bc85f)"><g clip-rule="nonzero" clip-path="url(#7c0c9b6142)"><g clip-rule="nonzero" clip-path="url(#7a5d29a287)"><path style=" stroke:none;fill-rule:nonzero;fill:#ff625e;fill-opacity:1;" d="M 153.339844 77.304688 L 287.472656 247.578125 L 211.273438 307.601562 L 77.144531 137.324219 C 56.601562 108.371094 48.453125 83.847656 46.113281 65.164062 C 43.980469 48.273438 46.441406 36.070312 48.378906 29.714844 C 49.347656 26.535156 52.234375 24.261719 55.550781 24.066406 C 62.183594 23.671875 74.53125 24.207031 90.449219 30.234375 C 108.046875 37.054688 130.003906 50.550781 153.339844 77.304688 Z M 153.339844 77.304688 "/></g></g></g><g clip-rule="nonzero" clip-path="url(#7baf1dd8fe)"><g clip-rule="nonzero" clip-path="url(#588fdfc19f)"><g clip-rule="nonzero" clip-path="url(#cd269ef9ce)"><path style=" stroke:none;fill-rule:nonzero;fill:#ff625e;fill-opacity:1;" d="M 88.078125 151.203125 L 233.066406 335.265625 L 203.914062 358.234375 L 73.15625 192.242188 C 73.15625 192.242188 73.15625 192.242188 65.597656 182.648438 L 58.921875 174.171875 C 48.28125 160.664062 45.453125 140.402344 44.707031 131.023438 C 44.503906 128.46875 46.925781 126.558594 49.367188 127.355469 C 58.527344 130.554688 78.097656 138.535156 88.078125 151.203125 Z M 88.078125 151.203125 "/></g></g></g><g clip-rule="nonzero" clip-path="url(#07f4896ba9)"><g clip-rule="nonzero" clip-path="url(#dfeada3550)"><g clip-rule="nonzero" clip-path="url(#f2aa9f1cd4)"><path style=" stroke:none;fill-rule:nonzero;fill:#ff625e;fill-opacity:1;" d="M 193.816406 68.515625 L 338.511719 252.203125 L 309.265625 275.246094 L 178.800781 109.625 C 178.800781 109.625 178.800781 109.625 171.242188 100.03125 L 164.566406 91.554688 C 153.925781 78.046875 151.171875 57.878906 150.425781 48.503906 C 150.222656 45.945312 152.644531 44.039062 155.085938 44.832031 C 164.339844 47.957031 183.910156 55.941406 193.816406 68.515625 Z M 193.816406 68.515625 "/></g></g></g><g clip-rule="nonzero" clip-path="url(#752bb645f1)"><g clip-rule="nonzero" clip-path="url(#bbe4800a7a)"><g clip-rule="nonzero" clip-path="url(#e0b72a4f29)"><g mask="url(#21400c905d)" transform="matrix(1,0,0,1,12,0)"><g clip-path="url(#1d44638cfb)"><g clip-rule="nonzero" clip-path="url(#47ba29f857)"><g clip-rule="nonzero" clip-path="url(#7bf4d5dcd5)"><g clip-rule="nonzero" clip-path="url(#2ba786972b)"><path style=" stroke:none;fill-rule:nonzero;fill:#000000;fill-opacity:1;" d="M 141.339844 77.304688 L 275.472656 247.578125 L 199.273438 307.601562 L 65.144531 137.324219 C 44.601562 108.371094 36.453125 83.847656 34.113281 65.164062 C 31.980469 48.273438 34.441406 36.070312 36.378906 29.714844 C 37.347656 26.535156 40.234375 24.261719 43.550781 24.066406 C 50.183594 23.671875 62.53125 24.207031 78.449219 30.234375 C 96.046875 37.054688 118.003906 50.550781 141.339844 77.304688 Z M 141.339844 77.304688 "/></g></g></g></g><mask id="21400c905d"><g filter="url(#7261f1a29f)"><rect x="0" width="375" y="0" height="374.999991" style="fill:#000000;fill-opacity:0.3;stroke:none;"/></g></mask></g></g></g></g><g clip-rule="nonzero" clip-path="url(#72fd8f2b21)"><g clip-rule="nonzero" clip-path="url(#3ecf645735)"><g clip-rule="nonzero" clip-path="url(#b6ea325bfe)"><g mask="url(#c634b136ed)" transform="matrix(1,0,0,1,30,116)"><g clip-path="url(#1af5cc4df2)"><g clip-rule="nonzero" clip-path="url(#0deeb46c10)"><g clip-rule="nonzero" clip-path="url(#2c6d252d7e)"><g clip-rule="nonzero" clip-path="url(#c2ad6a25e4)"><path style=" stroke:none;fill-rule:nonzero;fill:#000000;fill-opacity:1;" d="M 58.078125 35.203125 L 203.066406 219.265625 L 173.914062 242.234375 L 43.15625 76.242188 C 43.15625 76.242188 43.15625 76.242188 35.597656 66.648438 L 28.921875 58.171875 C 18.28125 44.664062 15.453125 24.402344 14.707031 15.023438 C 14.503906 12.46875 16.925781 10.558594 19.367188 11.355469 C 28.527344 14.554688 48.097656 22.535156 58.078125 35.203125 Z M 58.078125 35.203125 "/></g></g></g></g><mask id="c634b136ed"><g filter="url(#7261f1a29f)"><rect x="0" width="375" y="0" height="374.999991" style="fill:#000000;fill-opacity:0.2;stroke:none;"/></g></mask></g></g></g></g><g clip-rule="nonzero" clip-path="url(#8cfcf8ec0b)"><g clip-rule="nonzero" clip-path="url(#76993c31e3)"><g clip-rule="nonzero" clip-path="url(#b76b3789a4)"><g mask="url(#6e5c5bdf3e)" transform="matrix(1,0,0,1,109,216)"><g clip-path="url(#ff66f8a61a)"><g clip-rule="nonzero" clip-path="url(#064ab538d3)"><g clip-rule="nonzero" clip-path="url(#67da669315)"><g clip-rule="nonzero" clip-path="url(#b136bf2113)"><path style=" stroke:none;fill-rule:nonzero;fill:#000000;fill-opacity:1;" d="M 2.386719 24.773438 L 31.632812 1.730469 L 34.421875 5.273438 L 5.171875 28.3125 Z M 2.386719 24.773438 "/></g></g></g></g><mask id="6e5c5bdf3e"><g filter="url(#7261f1a29f)"><rect x="0" width="375" y="0" height="374.999991" style="fill:#000000;fill-opacity:0.1;stroke:none;"/></g></mask></g></g></g></g><g clip-rule="nonzero" clip-path="url(#64c079dc7a)"><g clip-rule="nonzero" clip-path="url(#bb68197b1a)"><g clip-rule="nonzero" clip-path="url(#dc679d8e06)"><g mask="url(#59512e1889)" transform="matrix(1,0,0,1,136,32)"><g clip-path="url(#cb4925806f)"><g clip-rule="nonzero" clip-path="url(#14576aa230)"><g clip-rule="nonzero" clip-path="url(#ddb4a023b7)"><g clip-rule="nonzero" clip-path="url(#d9ac2409b3)"><path style=" stroke:none;fill-rule:nonzero;fill:#000000;fill-opacity:1;" d="M 57.816406 36.515625 L 202.511719 220.203125 L 173.265625 243.246094 L 42.800781 77.625 C 42.800781 77.625 42.800781 77.625 35.242188 68.03125 L 28.566406 59.554688 C 17.925781 46.046875 15.171875 25.878906 14.425781 16.503906 C 14.222656 13.945312 16.644531 12.039062 19.085938 12.832031 C 28.339844 15.957031 47.910156 23.941406 57.816406 36.515625 Z M 57.816406 36.515625 "/></g></g></g></g><mask id="59512e1889"><g filter="url(#7261f1a29f)"><rect x="0" width="375" y="0" height="374.999991" style="fill:#000000;fill-opacity:0.2;stroke:none;"/></g></mask></g></g></g></g><g clip-rule="nonzero" clip-path="url(#e811ef8b8d)"><g clip-rule="nonzero" clip-path="url(#b5c8107805)"><g clip-rule="nonzero" clip-path="url(#2eceed36aa)"><g mask="url(#9bad3792b8)" transform="matrix(1,0,0,1,215,133)"><g clip-path="url(#da7cc02ea8)"><g clip-rule="nonzero" clip-path="url(#7c077eeb8f)"><g clip-rule="nonzero" clip-path="url(#2550332a7a)"><g clip-rule="nonzero" clip-path="url(#328bb729ea)"><path style=" stroke:none;fill-rule:nonzero;fill:#000000;fill-opacity:1;" d="M 1.828125 24.710938 L 31.078125 1.671875 L 33.867188 5.210938 L 4.617188 28.25 Z M 1.828125 24.710938 "/></g></g></g></g><mask id="9bad3792b8"><g filter="url(#7261f1a29f)"><rect x="0" width="375" y="0" height="374.999991" style="fill:#000000;fill-opacity:0.1;stroke:none;"/></g></mask></g></g></g></g><g clip-rule="nonzero" clip-path="url(#93ba5e2a16)"><g clip-rule="nonzero" clip-path="url(#b6bf412125)"><g clip-rule="nonzero" clip-path="url(#d6f61f6149)"><g mask="url(#5cfac7e6f4)" transform="matrix(1,0,0,1,28,7)"><g clip-path="url(#7e82511f91)"><g clip-rule="nonzero" clip-path="url(#56c341f836)"><g clip-rule="nonzero" clip-path="url(#b20804a105)"><g clip-rule="nonzero" clip-path="url(#9f12777f92)"><path style=" stroke:none;fill-rule:nonzero;fill:#000000;fill-opacity:1;" d="M 62.449219 23.234375 L 18.113281 58.164062 C 15.980469 41.273438 18.441406 29.070312 20.378906 22.714844 C 21.347656 19.535156 24.234375 17.261719 27.550781 17.066406 C 34.089844 16.742188 46.53125 17.207031 62.449219 23.234375 Z M 62.449219 23.234375 "/></g></g></g></g><mask id="5cfac7e6f4"><g filter="url(#7261f1a29f)"><rect x="0" width="375" y="0" height="374.999991" style="fill:#000000;fill-opacity:0.15;stroke:none;"/></g></mask></g></g></g></g><g clip-rule="nonzero" clip-path="url(#d94612e58e)"><g clip-rule="nonzero" clip-path="url(#4b9729896e)"><g clip-rule="nonzero" clip-path="url(#a5250c47ea)"><path style=" stroke:none;fill-rule:nonzero;fill:#ff625e;fill-opacity:1;" d="M 338.976562 217.726562 L 277.964844 265.785156 L 287.503906 277.894531 L 264.121094 296.3125 L 254.582031 284.203125 L 253 285.449219 L 262.539062 297.558594 L 239.15625 315.976562 L 229.617188 303.867188 L 167.117188 353.105469 C 165.0625 350.496094 163.121094 347.648438 161.457031 344.578125 C 160.671875 343.386719 160.070312 342.050781 159.449219 340.878906 C 149.632812 321.136719 147.023438 294.0625 157.390625 265.0625 C 170.140625 229.511719 125.089844 184.390625 125.089844 184.390625 C 91.410156 141.636719 87.308594 100.789062 87.289062 83.898438 C 87.300781 79.511719 91.492188 76.207031 95.765625 77.222656 C 112.179688 81.195312 150.929688 94.75 184.609375 137.503906 C 184.609375 137.503906 217.851562 191.773438 255.476562 187.800781 C 286.09375 184.511719 311.734375 193.296875 328.699219 207.554688 C 329.765625 208.527344 330.832031 209.496094 331.828125 210.375 C 334.515625 212.636719 336.921875 215.117188 338.976562 217.726562 Z M 338.976562 217.726562 "/></g></g></g><g clip-rule="nonzero" clip-path="url(#770dd5e5a8)"><g clip-rule="nonzero" clip-path="url(#7a3edbac04)"><g clip-rule="nonzero" clip-path="url(#914d0d30c4)"><g mask="url(#5ce0e001b2)" transform="matrix(1,0,0,1,199,329)"><g clip-path="url(#2c99591dd3)"><g clip-rule="nonzero" clip-path="url(#e5fd8bdc9b)"><g clip-rule="nonzero" clip-path="url(#5ac82d4291)"><g clip-rule="nonzero" clip-path="url(#0319708ec4)"><path style=" stroke:none;fill-rule:nonzero;fill:#000000;fill-opacity:1;" d="M 1.390625 24.761719 L 30.640625 1.722656 L 34.160156 6.191406 L 4.914062 29.234375 Z M 1.390625 24.761719 "/></g></g></g></g><mask id="5ce0e001b2"><g filter="url(#7261f1a29f)"><rect x="0" width="375" y="0" height="374.999991" style="fill:#000000;fill-opacity:0.25;stroke:none;"/></g></mask></g></g></g></g><g clip-rule="nonzero" clip-path="url(#2b653ad7a3)"><g clip-rule="nonzero" clip-path="url(#1faa966e69)"><g clip-rule="nonzero" clip-path="url(#8b3177c09c)"><g mask="url(#8c041335ef)" transform="matrix(1,0,0,1,304,246)"><g clip-path="url(#60c1d95f17)"><g clip-rule="nonzero" clip-path="url(#90c73e667f)"><g clip-rule="nonzero" clip-path="url(#c8379d425e)"><g clip-rule="nonzero" clip-path="url(#9513007a0f)"><path style=" stroke:none;fill-rule:nonzero;fill:#000000;fill-opacity:1;" d="M 1.835938 24.699219 L 31.082031 1.660156 L 34.605469 6.132812 L 5.355469 29.171875 Z M 1.835938 24.699219 "/></g></g></g></g><mask id="8c041335ef"><g filter="url(#7261f1a29f)"><rect x="0" width="375" y="0" height="374.999991" style="fill:#000000;fill-opacity:0.25;stroke:none;"/></g></mask></g></g></g></g><g clip-rule="nonzero" clip-path="url(#d4348a0265)"><g clip-rule="nonzero" clip-path="url(#3682a97e41)"><g clip-rule="nonzero" clip-path="url(#7aeebfc562)"><g mask="url(#e1b2490998)" transform="matrix(1,0,0,1,157,291)"><g clip-path="url(#d5516a29bd)"><g clip-rule="nonzero" clip-path="url(#e21a9a23f7)"><g clip-rule="nonzero" clip-path="url(#ac344cd653)"><g clip-rule="nonzero" clip-path="url(#4a730daffe)"><path style=" stroke:none;fill-rule:nonzero;fill:#000000;fill-opacity:1;" d="M 63.742188 1.597656 L 66.308594 4.859375 L 4.457031 53.578125 C 3.671875 52.386719 2.976562 51.125 2.261719 50.027344 Z M 63.742188 1.597656 "/></g></g></g></g><mask id="e1b2490998"><g filter="url(#7261f1a29f)"><rect x="0" width="375" y="0" height="374.999991" style="fill:#000000;fill-opacity:0.25;stroke:none;"/></g></mask></g></g></g></g><g clip-rule="nonzero" clip-path="url(#bfe5657b1e)"><g clip-rule="nonzero" clip-path="url(#dd5efc402f)"><g clip-rule="nonzero" clip-path="url(#f003b0eada)"><g mask="url(#b68432435e)" transform="matrix(1,0,0,1,268,206)"><g clip-path="url(#db3b03cfb9)"><g clip-rule="nonzero" clip-path="url(#1f36bb0b5d)"><g clip-rule="nonzero" clip-path="url(#1985dade64)"><g clip-rule="nonzero" clip-path="url(#7712d6ccd6)"><path style=" stroke:none;fill-rule:nonzero;fill:#000000;fill-opacity:1;" d="M 64.011719 4.226562 L 3.652344 51.777344 L 1.085938 48.515625 L 60.980469 1.335938 C 62.046875 2.304688 63.113281 3.277344 64.011719 4.226562 Z M 64.011719 4.226562 "/></g></g></g></g><mask id="b68432435e"><g filter="url(#7261f1a29f)"><rect x="0" width="375" y="0" height="374.999991" style="fill:#000000;fill-opacity:0.25;stroke:none;"/></g></mask></g></g></g></g><g clip-rule="nonzero" clip-path="url(#d1689d3b88)"><g clip-rule="nonzero" clip-path="url(#d2c3d98fa8)"><g clip-rule="nonzero" clip-path="url(#f6bef1ebfd)"><g mask="url(#a6fa9c3884)" transform="matrix(1,0,0,1,235,292)"><g clip-path="url(#2370f6e194)"><g clip-rule="nonzero" clip-path="url(#ec4f1adfde)"><g clip-rule="nonzero" clip-path="url(#ae32ee9a5f)"><g clip-rule="nonzero" clip-path="url(#efa61d37a0)"><path style=" stroke:none;fill-rule:nonzero;fill:#000000;fill-opacity:1;" d="M 1.074219 20.066406 L 24.457031 1.648438 L 27.539062 5.558594 L 4.15625 23.976562 Z M 1.074219 20.066406 "/></g></g></g></g><mask id="a6fa9c3884"><g filter="url(#7261f1a29f)"><rect x="0" width="375" y="0" height="374.999991" style="fill:#000000;fill-opacity:0.25;stroke:none;"/></g></mask></g></g></g></g><g clip-rule="nonzero" clip-path="url(#b5667935c9)"><g clip-rule="nonzero" clip-path="url(#4b4eb0c6c5)"><g clip-rule="nonzero" clip-path="url(#cb89097a98)"><g mask="url(#edf3666ce7)" transform="matrix(1,0,0,1,259,273)"><g clip-path="url(#6eeac2020b)"><g clip-rule="nonzero" clip-path="url(#77c9ebdd9b)"><g clip-rule="nonzero" clip-path="url(#c5cdbd386d)"><g clip-rule="nonzero" clip-path="url(#04fd627d99)"><path style=" stroke:none;fill-rule:nonzero;fill:#000000;fill-opacity:1;" d="M 2.039062 19.402344 L 25.421875 0.984375 L 28.503906 4.894531 L 5.121094 23.3125 Z M 2.039062 19.402344 "/></g></g></g></g><mask id="edf3666ce7"><g filter="url(#7261f1a29f)"><rect x="0" width="375" y="0" height="374.999991" style="fill:#000000;fill-opacity:0.25;stroke:none;"/></g></mask></g></g></g></g><g clip-rule="nonzero" clip-path="url(#35dc5fba45)"><g clip-rule="nonzero" clip-path="url(#a427af65ec)"><g clip-rule="nonzero" clip-path="url(#abde19a6c9)"><g mask="url(#0e55c64ce4)" transform="matrix(1,0,0,1,98,107)"><g clip-path="url(#0c978f53cf)"><g clip-rule="nonzero" clip-path="url(#68a2ac6bcd)"><g clip-rule="nonzero" clip-path="url(#c92cd4f342)"><g clip-rule="nonzero" clip-path="url(#d8a33a7a62)"><path style=" stroke:none;fill-rule:nonzero;fill:#000000;fill-opacity:1;" d="M 7.121094 1.644531 L 10.9375 3.617188 C 8.882812 5.992188 7.792969 8.058594 7.449219 9.535156 L 3.328125 8.710938 C 3.84375 6.492188 5.140625 4.113281 7.121094 1.644531 Z M 7.121094 1.644531 "/></g></g></g></g><mask id="0e55c64ce4"><g filter="url(#7261f1a29f)"><rect x="0" width="375" y="0" height="374.999991" style="fill:#000000;fill-opacity:0.25;stroke:none;"/></g></mask></g></g></g></g><g clip-rule="nonzero" clip-path="url(#ba03239ace)"><g clip-rule="nonzero" clip-path="url(#cbcfbce0a1)"><g clip-rule="nonzero" clip-path="url(#6d42697920)"><g mask="url(#c4b343a803)" transform="matrix(1,0,0,1,104,99)"><g clip-path="url(#b556e97dbd)"><g clip-rule="nonzero" clip-path="url(#6c7b9a2076)"><g clip-rule="nonzero" clip-path="url(#1e5642ceb7)"><g clip-rule="nonzero" clip-path="url(#7767e9a86a)"><path style=" stroke:none;fill-rule:nonzero;fill:#000000;fill-opacity:1;" d="M 10.753906 1.753906 L 11.757812 6.09375 C 10.753906 6.734375 9.84375 7.304688 8.910156 8.035156 C 7.792969 8.917969 6.933594 9.746094 6.078125 10.570312 L 2.164062 8.671875 C 3.34375 7.292969 4.757812 6.023438 6.34375 4.777344 C 7.757812 3.507812 9.230469 2.503906 10.753906 1.753906 Z M 10.753906 1.753906 "/></g></g></g></g><mask id="c4b343a803"><g filter="url(#7261f1a29f)"><rect x="0" width="375" y="0" height="374.999991" style="fill:#000000;fill-opacity:0.25;stroke:none;"/></g></mask></g></g></g></g><g clip-rule="nonzero" clip-path="url(#00cf500f88)"><g clip-rule="nonzero" clip-path="url(#cdcbfc91f6)"><g clip-rule="nonzero" clip-path="url(#659e595fc0)"><g mask="url(#0178bf3bc1)" transform="matrix(1,0,0,1,66,58)"><g clip-path="url(#a532f4c45d)"><g clip-rule="nonzero" clip-path="url(#47553c8da8)"><g clip-rule="nonzero" clip-path="url(#2d72a21d2f)"><g clip-rule="nonzero" clip-path="url(#38c4d680e3)"><path style=" stroke:none;fill-rule:nonzero;fill:#000000;fill-opacity:1;" d="M 84.214844 45.613281 L 218.421875 215.984375 L 195.039062 234.402344 L 171.121094 204.035156 L 169.535156 205.28125 L 193.457031 235.648438 L 170.074219 254.066406 L 31.617188 78.292969 C 22.863281 55.300781 21.414062 36.214844 21.453125 25.917969 C 21.394531 21.4375 25.585938 18.132812 29.929688 19.242188 C 40.761719 21.878906 61.5625 28.738281 84.214844 45.613281 Z M 84.214844 45.613281 "/></g></g></g></g><mask id="0178bf3bc1"><g filter="url(#7261f1a29f)"><rect x="0" width="375" y="0" height="374.999991" style="fill:#000000;fill-opacity:0.1;stroke:none;"/></g></mask></g></g></g></g><g clip-rule="nonzero" clip-path="url(#87e4b7cf27)"><g clip-rule="nonzero" clip-path="url(#1fc7d269ef)"><g clip-rule="nonzero" clip-path="url(#83330dd90f)"><g mask="url(#4433cc5361)" transform="matrix(1,0,0,1,113,94)"><g clip-path="url(#f239ef4058)"><g clip-rule="nonzero" clip-path="url(#ed2d123be6)"><g clip-rule="nonzero" clip-path="url(#1adcceb5d5)"><g clip-rule="nonzero" clip-path="url(#439cfec339)"><path style=" stroke:none;fill-rule:nonzero;fill:#000000;fill-opacity:1;" d="M 10.628906 3.839844 L 10.726562 7.988281 C 8.949219 8.03125 6.570312 8.847656 4.136719 10.160156 L 3.207031 5.914062 C 5.808594 4.617188 8.425781 3.914062 10.628906 3.839844 Z M 10.628906 3.839844 "/></g></g></g></g><mask id="4433cc5361"><g filter="url(#7261f1a29f)"><rect x="0" width="375" y="0" height="374.999991" style="fill:#000000;fill-opacity:0.25;stroke:none;"/></g></mask></g></g></g></g><g clip-rule="nonzero" clip-path="url(#73e8e95391)"><g clip-rule="nonzero" clip-path="url(#075559b865)"><g clip-rule="nonzero" clip-path="url(#395ef780b5)"><g mask="url(#ffa685bff7)" transform="matrix(1,0,0,1,209,238)"><g clip-path="url(#43858716ee)"><g clip-rule="nonzero" clip-path="url(#9fb294b7c3)"><g clip-rule="nonzero" clip-path="url(#0468938c56)"><g clip-rule="nonzero" clip-path="url(#8be1e8d4c0)"><path style=" stroke:none;fill-rule:nonzero;fill:#000000;fill-opacity:1;" d="M 1.207031 39.5 L 49.550781 1.417969 L 52.339844 4.957031 L 3.992188 43.039062 Z M 1.207031 39.5 "/></g></g></g></g><mask id="ffa685bff7"><g filter="url(#7261f1a29f)"><rect x="0" width="375" y="0" height="374.999991" style="fill:#000000;fill-opacity:0.25;stroke:none;"/></g></mask></g></g></g></g><g clip-rule="nonzero" clip-path="url(#edabbf7c10)"><g clip-rule="nonzero" clip-path="url(#70d4431bd0)"><g clip-rule="nonzero" clip-path="url(#da06775e6d)"><g mask="url(#4836a1a2de)" transform="matrix(1,0,0,1,134,145)"><g clip-path="url(#32a401d3d5)"><g clip-rule="nonzero" clip-path="url(#fa645f09fe)"><g clip-rule="nonzero" clip-path="url(#c18f1d2ff5)"><g clip-rule="nonzero" clip-path="url(#a6b54e378a)"><path style=" stroke:none;fill-rule:nonzero;fill:#000000;fill-opacity:1;" d="M 0.671875 38.332031 L 49.015625 0.25 L 51.804688 3.792969 L 3.457031 41.875 Z M 0.671875 38.332031 "/></g></g></g></g><mask id="4836a1a2de"><g filter="url(#7261f1a29f)"><rect x="0" width="375" y="0" height="374.999991" style="fill:#000000;fill-opacity:0.25;stroke:none;"/></g></mask></g></g></g></g><g clip-rule="nonzero" clip-path="url(#4c58d74a19)"><g clip-rule="nonzero" clip-path="url(#0b47ab32c5)"><path style=" stroke:none;fill-rule:nonzero;fill:#e65854;fill-opacity:1;" d="M 182.558594 145.058594 L 234.1875 209.992188 L 186.554688 247.859375 L 134.925781 182.925781 Z M 182.558594 145.058594 "/></g></g><g style="fill:#ffffff;fill-opacity:1;"><g transform="translate(116.700992, 130.678618)"><path style="stroke:none" d="M 25.453125 -8.71875 L 5.828125 7.1875 L 1.84375 2.265625 L 21.46875 -13.640625 Z M 25.453125 -8.71875 "/></g></g><g style="fill:#ffffff;fill-opacity:1;"><g transform="translate(124.366366, 140.137821)"><path style="stroke:none" d="M 32 14 L 27.671875 8.65625 C 29.566406 6.039062 29.195312 3.101562 26.5625 -0.15625 C 24.96875 -2.113281 23.148438 -3.207031 21.109375 -3.4375 C 19.078125 -3.675781 17.078125 -3 15.109375 -1.40625 C 13.148438 0.1875 12.070312 2 11.875 4.03125 C 11.675781 6.070312 12.375 8.070312 13.96875 10.03125 C 15.363281 11.757812 16.84375 12.84375 18.40625 13.28125 C 19.96875 13.726562 21.457031 13.515625 22.875 12.640625 L 27.234375 18.015625 C 25.492188 19.148438 23.617188 19.726562 21.609375 19.75 C 19.597656 19.769531 17.585938 19.238281 15.578125 18.15625 C 13.566406 17.082031 11.6875 15.460938 9.9375 13.296875 C 7.988281 10.898438 6.726562 8.472656 6.15625 6.015625 C 5.582031 3.566406 5.679688 1.238281 6.453125 -0.96875 C 7.234375 -3.1875 8.660156 -5.132812 10.734375 -6.8125 C 12.804688 -8.5 15.003906 -9.492188 17.328125 -9.796875 C 19.660156 -10.097656 21.96875 -9.707031 24.25 -8.625 C 26.53125 -7.550781 28.644531 -5.816406 30.59375 -3.421875 C 32.34375 -1.253906 33.539062 0.90625 34.1875 3.0625 C 34.832031 5.21875 34.960938 7.238281 34.578125 9.125 C 34.203125 11.019531 33.34375 12.644531 32 14 Z M 32 14 "/></g></g><g style="fill:#ffffff;fill-opacity:1;"><g transform="translate(144.887667, 165.461463)"><path style="stroke:none" d="M 30.6875 10.078125 L 26.71875 5.171875 C 28.488281 3.367188 28.164062 0.976562 25.75 -2 C 24.59375 -3.425781 23.507812 -4.34375 22.5 -4.75 C 21.5 -5.15625 20.660156 -5.082031 19.984375 -4.53125 C 19.265625 -3.945312 19.039062 -3.253906 19.3125 -2.453125 C 19.582031 -1.648438 20.210938 -0.488281 21.203125 1.03125 L 23.796875 5 C 25.523438 7.6875 26.414062 10 26.46875 11.9375 C 26.519531 13.875 25.679688 15.546875 23.953125 16.953125 C 21.804688 18.691406 19.441406 19.144531 16.859375 18.3125 C 14.285156 17.488281 11.601562 15.359375 8.8125 11.921875 C 6.125 8.609375 4.6875 5.601562 4.5 2.90625 C 4.320312 0.21875 5.457031 -2.117188 7.90625 -4.109375 L 11.96875 0.90625 C 9.582031 2.820312 9.9375 5.6875 13.03125 9.5 C 14.21875 10.957031 15.332031 11.894531 16.375 12.3125 C 17.414062 12.738281 18.316406 12.648438 19.078125 12.046875 C 19.835938 11.421875 20.097656 10.6875 19.859375 9.84375 C 19.628906 9.007812 19.03125 7.878906 18.0625 6.453125 L 15.625 2.703125 C 13.84375 -0.00390625 12.894531 -2.332031 12.78125 -4.28125 C 12.675781 -6.226562 13.453125 -7.867188 15.109375 -9.203125 C 16.335938 -10.203125 17.75 -10.71875 19.34375 -10.75 C 20.945312 -10.789062 22.609375 -10.332031 24.328125 -9.375 C 26.046875 -8.425781 27.703125 -6.972656 29.296875 -5.015625 C 31.835938 -1.878906 33.21875 1 33.4375 3.625 C 33.65625 6.257812 32.738281 8.410156 30.6875 10.078125 Z M 30.6875 10.078125 "/></g></g><g style="fill:#ffffff;fill-opacity:1;"><g transform="translate(163.788291, 188.78516)"><path style="stroke:none" d="M 19.796875 -5.46875 L 18.375 -4.296875 C 19.425781 -4.203125 20.472656 -3.867188 21.515625 -3.296875 C 22.566406 -2.734375 23.566406 -1.867188 24.515625 -0.703125 C 25.847656 0.941406 26.6875 2.660156 27.03125 4.453125 C 27.375 6.242188 27.242188 7.96875 26.640625 9.625 C 26.035156 11.28125 24.972656 12.722656 23.453125 13.953125 C 21.921875 15.191406 20.273438 15.9375 18.515625 16.1875 C 16.753906 16.4375 15.03125 16.195312 13.34375 15.46875 C 11.65625 14.738281 10.140625 13.546875 8.796875 11.890625 C 7.921875 10.816406 7.316406 9.710938 6.984375 8.578125 C 6.648438 7.453125 6.550781 6.3125 6.6875 5.15625 L 0.015625 10.578125 L -3.671875 6.015625 L 16.109375 -10.03125 Z M 20.328125 1.265625 C 19.265625 -0.046875 18.007812 -0.765625 16.5625 -0.890625 C 15.113281 -1.015625 13.75 -0.554688 12.46875 0.484375 C 11.207031 1.503906 10.484375 2.726562 10.296875 4.15625 C 10.109375 5.582031 10.550781 6.957031 11.625 8.28125 C 12.6875 9.59375 13.9375 10.304688 15.375 10.421875 C 16.820312 10.546875 18.1875 10.085938 19.46875 9.046875 C 20.75 8.003906 21.472656 6.769531 21.640625 5.34375 C 21.816406 3.925781 21.378906 2.566406 20.328125 1.265625 Z M 20.328125 1.265625 "/></g></g><g style="fill:#ffffff;fill-opacity:1;"><g transform="translate(180.69592, 209.649467)"><path style="stroke:none" d="M 15.65625 -0.671875 L 11.84375 -5.390625 C 13.570312 -6.796875 15.46875 -7.164062 17.53125 -6.5 C 19.59375 -5.832031 21.722656 -4.140625 23.921875 -1.421875 C 24.734375 -0.429688 25.425781 0.570312 26 1.59375 C 26.582031 2.613281 26.960938 3.640625 27.140625 4.671875 C 27.328125 5.703125 27.222656 6.707031 26.828125 7.6875 C 26.429688 8.675781 25.660156 9.640625 24.515625 10.578125 L 17.25 16.46875 C 16.738281 16.882812 16.359375 17.269531 16.109375 17.625 C 15.867188 17.976562 15.753906 18.367188 15.765625 18.796875 L 15.4375 19.0625 L 11.390625 14.0625 L 12.8125 12.5625 C 11.40625 12.320312 10.128906 11.835938 8.984375 11.109375 C 7.847656 10.390625 6.769531 9.398438 5.75 8.140625 C 4.070312 6.066406 3.21875 4.101562 3.1875 2.25 C 3.15625 0.394531 3.863281 -1.113281 5.3125 -2.28125 C 6.820312 -3.507812 8.363281 -3.804688 9.9375 -3.171875 C 11.507812 -2.546875 13.332031 -1.140625 15.40625 1.046875 C 16.53125 2.210938 17.472656 3.195312 18.234375 4 C 18.992188 4.8125 19.65625 5.351562 20.21875 5.625 C 20.789062 5.894531 21.347656 5.804688 21.890625 5.359375 C 22.992188 4.472656 22.632812 2.90625 20.8125 0.65625 C 19.925781 -0.445312 19.0625 -1.117188 18.21875 -1.359375 C 17.375 -1.609375 16.519531 -1.378906 15.65625 -0.671875 Z M 18.34375 8.234375 C 17.71875 7.972656 17.113281 7.5625 16.53125 7 C 15.957031 6.445312 15.3125 5.828125 14.59375 5.140625 C 13.4375 3.960938 12.484375 3.125 11.734375 2.625 C 10.984375 2.125 10.257812 2.160156 9.5625 2.734375 C 9 3.191406 8.726562 3.773438 8.75 4.484375 C 8.769531 5.203125 9.085938 5.941406 9.703125 6.703125 C 10.953125 8.253906 12.332031 9.203125 13.84375 9.546875 C 15.351562 9.890625 16.6875 9.59375 17.84375 8.65625 Z M 18.34375 8.234375 "/></g></g><g style="fill:#ffffff;fill-opacity:1;"><g transform="translate(197.121725, 229.919195)"><path style="stroke:none" d="M 19.796875 -5.46875 L 17.875 -3.90625 C 20.59375 -3.875 22.601562 -3.054688 23.90625 -1.453125 C 24.039062 -1.285156 24.203125 -1.070312 24.390625 -0.8125 C 24.578125 -0.550781 24.71875 -0.3125 24.8125 -0.09375 L 20.96875 3.015625 C 20.894531 2.867188 20.742188 2.648438 20.515625 2.359375 C 20.285156 2.066406 20.066406 1.789062 19.859375 1.53125 C 18.796875 0.21875 17.539062 -0.484375 16.09375 -0.578125 C 14.65625 -0.671875 13.195312 -0.113281 11.71875 1.09375 L 5.171875 6.390625 L 1.484375 1.828125 L 16.109375 -10.03125 Z M 19.796875 -5.46875 "/></g></g><g style="fill:#ffffff;fill-opacity:1;"><g transform="translate(207.130513, 242.270213)"><path style="stroke:none" d="M 24.796875 -9.515625 L 14.3125 -1.015625 L 25.046875 1.015625 L 29.796875 6.875 L 18 4.484375 L 15.6875 19.359375 L 10.78125 13.3125 L 12.5 3.4375 L 9.625 2.78125 L 5.171875 6.390625 L 1.484375 1.828125 L 21.109375 -14.078125 Z M 24.796875 -9.515625 "/></g></g></g></svg>